<svg width="65" height="70" viewBox="0 0 65 70" fill="none" xmlns="http://www.w3.org/2000/svg">
<path d="M0 17.9487L33.2051 0L64.6154 17.0513L55.641 22.4359L32.3077 10.7692L14.359 20.641L36.7949 32.3077L26.9231 37.6923L8.97436 28.7179V32.3077V36.7949L0 31.4103V17.9487Z" fill="#305A8B"/>
<path d="M8.97436 48.4616V38.5898L4.48718 35.8974L0 33.2051V52.0513L34.1026 70L64.6154 52.9487V17.9487L55.641 23.3333V48.4616L37.6923 57.4359V45.7692V33.2051L27.8205 38.5898V57.4359L8.97436 48.4616Z" fill="#55A3D1"/>
<path d="M43.9744 32.3077L25.1282 22.4359L32.3077 17.9487L52.0513 27.8205V48.4616L43.9744 52.0513V32.3077Z" fill="#EF4A62"/>
</svg>
